<?xml version="1.0" encoding="utf-8"?>
<!-- Generator: Adobe Illustrator 16.0.0, SVG Export Plug-In . SVG Version: 6.00 Build 0)  -->
<!DOCTYPE svg PUBLIC "-//W3C//DTD SVG 1.1//EN" "http://www.w3.org/Graphics/SVG/1.1/DTD/svg11.dtd">
<svg version="1.1" id="Layer_1" xmlns="http://www.w3.org/2000/svg" xmlns:xlink="http://www.w3.org/1999/xlink" x="0px" y="0px"
	 width="32px" height="32px" viewBox="0 0 32 32" enable-background="new 0 0 32 32" xml:space="preserve">
	 <style>
	 path,rect,polygon { fill:#191919 !important}
	 </style>
<g>
	<g>
		<path fill="#191919" d="M69.747,15.613L54.333,0.198L38.919,15.613c-0.781,0.781-0.781,2.047,0,2.829s2.047,0.781,2.828,0
			l0.586-0.586v7.172v2.025h2h20h2v-2.025v-7.172l0.586,0.586c0.391,0.391,0.902,0.586,1.414,0.586s1.023-0.195,1.414-0.586
			C70.528,17.66,70.528,16.394,69.747,15.613z M64.333,25.053h-12v-8h-4v8h-4v-9.198l10-10l10,10V25.053z"/>
		<rect x="56.333" y="17.053" fill="#191919" width="4" height="4"/>
	</g>
	<polygon fill="#191919" points="48.333,3.37 48.333,1.053 44.333,1.053 44.333,7.37 	"/>
</g>
<g>
	<path fill="#191919" d="M15.471,45.093c-1.201,2.748-3.824,5.045-6.367,5.045c-3.105,0-5.359-2.27-6.562-5.018
		c-6.991,3.621-6.11,12.787-6.11,12.787c0,1.254,0.988,1.436,2.149,1.436H9.102h10.507c1.162,0,2.154-0.182,2.154-1.436
		C21.764,57.907,22.459,48.714,15.471,45.093z"/>
	<path fill="#191919" d="M9.104,48.649c3.5,0,6.285-5.012,6.285-9.152S12.549,32,9.048,32c-3.503,0-6.339,3.356-6.339,7.498
		C2.709,43.639,5.601,48.649,9.104,48.649z"/>
</g>
<g>
	<path fill="#191919" d="M17.992,22.993c0,0.945-0.766,1.711-1.711,1.711s-1.711-0.766-1.711-1.711v-8.555
		c0-0.944,0.766-1.711,1.711-1.711s1.711,0.767,1.711,1.711V22.993z M16.281,11.043c-0.945,0-1.711-0.765-1.711-1.711
		c0-0.943,0.766-1.711,1.711-1.711s1.711,0.768,1.711,1.711C17.992,10.278,17.227,11.043,16.281,11.043z"/>
	<path fill="#191919" d="M16.281,2.476c-7.559,0-13.688,6.129-13.688,13.688s6.128,13.688,13.688,13.688
		c7.559,0,13.688-6.129,13.688-13.688S23.84,2.476,16.281,2.476z M16.281,27.976c-6.524,0-11.813-5.289-11.813-11.813
		c0-6.524,5.289-11.813,11.813-11.813c6.523,0,11.813,5.288,11.813,11.813C28.094,22.687,22.805,27.976,16.281,27.976z"/>
</g>
</svg>
