<?xml version="1.0" encoding="utf-8"?>
<!-- Generator: Adobe Illustrator 16.0.0, SVG Export Plug-In . SVG Version: 6.00 Build 0)  -->
<!DOCTYPE svg PUBLIC "-//W3C//DTD SVG 1.1//EN" "http://www.w3.org/Graphics/SVG/1.1/DTD/svg11.dtd">
<svg version="1.1" id="Layer_1" xmlns="http://www.w3.org/2000/svg" xmlns:xlink="http://www.w3.org/1999/xlink" x="0px" y="0px"
	 width="32px" height="32px" viewBox="0 0 32 32" enable-background="new 0 0 32 32" xml:space="preserve">
	  <style>
	 path,rect,polygon { fill:#000000 !important}
	 </style>
<g>
	<g>
		<path fill="#191919" d="M19.247,2.93v2.822c4.927,1.501,8.521,6.083,8.521,11.494c0,6.626-5.39,12.017-12.016,12.017
			c-6.626,0-12.017-5.391-12.017-12.017c0-5.409,3.595-9.993,8.521-11.494V2.93C5.808,4.506,1,10.319,1,17.246
			C1,25.383,7.618,32,15.753,32s14.754-6.618,14.754-14.754C30.507,10.318,25.698,4.506,19.247,2.93z"/>
	</g>
	<g>
		<path fill="#191919" d="M15.754,17.63c-0.907,0-1.644-0.736-1.644-1.645V1.75c0-0.908,0.737-1.644,1.644-1.644
			c0.907,0,1.644,0.736,1.644,1.644v14.235C17.397,16.894,16.661,17.63,15.754,17.63z"/>
	</g>
</g>
</svg>
