<?xml version="1.0" encoding="utf-8"?>
<!-- Generator: Adobe Illustrator 16.0.0, SVG Export Plug-In . SVG Version: 6.00 Build 0)  -->
<!DOCTYPE svg PUBLIC "-//W3C//DTD SVG 1.1//EN" "http://www.w3.org/Graphics/SVG/1.1/DTD/svg11.dtd">
<svg version="1.1" id="Capa_1" xmlns="http://www.w3.org/2000/svg" xmlns:xlink="http://www.w3.org/1999/xlink" x="0px" y="0px"
	 width="1000px" height="1000px" viewBox="0 0 1000 1000" enable-background="new 0 0 1000 1000" xml:space="preserve">
<g>
	<path fill="#55ACEE" d="M714.408,400.591c0-5.045-0.091-10.045-0.317-15c21.591-16.091,40.317-36.227,55.136-59.272
		c-19.818,8.909-41.091,14.863-63.454,17.363c22.818-14.045,40.318-36.5,48.591-63.454c-21.363,12.954-45,22.228-70.137,27.046
		c-20.136-22.909-48.863-37.5-80.636-38.046c-61-1-110.455,50.546-110.455,115.137c0,9.182,0.955,18.091,2.864,26.682
		c-91.864-5.909-173.273-53.728-227.728-125.818c-9.5,17.272-14.954,37.454-14.954,59.091c0,40.909,19.5,77.273,49.136,98.728
		c-18.136-0.818-35.136-6.318-50.045-15.318c0,0.5,0,1,0,1.5c0,57.182,38.091,105.091,88.636,116.272
		c-9.272,2.637-19.045,4-29.091,3.955c-7.137-0.046-14.046-0.818-20.772-2.272c14.045,46.863,54.863,81.091,103.182,82.227
		c-37.818,31.364-85.455,50.091-137.182,49.955c-8.909,0-17.728-0.591-26.363-1.682c48.909,33.545,106.954,53.091,169.363,53.091
		C603.318,730.818,714.408,554,714.408,400.591z"/>
</g>
</svg>
