<?xml version="1.0" encoding="utf-8"?>
<!-- Generator: Adobe Illustrator 16.0.0, SVG Export Plug-In . SVG Version: 6.00 Build 0)  -->
<!DOCTYPE svg PUBLIC "-//W3C//DTD SVG 1.1//EN" "http://www.w3.org/Graphics/SVG/1.1/DTD/svg11.dtd">
<svg version="1.1" id="Layer_1" xmlns="http://www.w3.org/2000/svg" xmlns:xlink="http://www.w3.org/1999/xlink" x="0px" y="0px"
	 width="32px" height="32px" viewBox="0 0 32 32" enable-background="new 0 0 32 32" xml:space="preserve">
	  <style>
	 path,rect,polygon { fill:#000000 !important}
	 </style>
<path fill="#191919" d="M18.399,2.6c7.488,0,13.559,6.07,13.559,13.558c0,7.487-6.07,13.557-13.559,13.557v-2.904
	c2.846,0,5.521-1.107,7.533-3.121c2.013-2.012,3.12-4.686,3.12-7.532c0-2.846-1.107-5.521-3.12-7.533s-4.688-3.12-7.533-3.12
	c-2.845,0-5.521,1.107-7.532,3.12c-1.548,1.548-2.56,3.488-2.945,5.596h5.636l-6.78,7.749L0,14.22h4.98
	C5.92,7.65,11.57,2.6,18.399,2.6z M24.211,14.22v3.874h-7.748V8.41h3.874v5.81H24.211z"/>
</svg>
