<?xml version="1.0" encoding="utf-8"?>
<!-- Generator: Adobe Illustrator 16.0.0, SVG Export Plug-In . SVG Version: 6.00 Build 0)  -->
<!DOCTYPE svg PUBLIC "-//W3C//DTD SVG 1.1//EN" "http://www.w3.org/Graphics/SVG/1.1/DTD/svg11.dtd">
<svg version="1.1" id="Capa_1" xmlns="http://www.w3.org/2000/svg" xmlns:xlink="http://www.w3.org/1999/xlink" x="0px" y="0px"
	 width="14px" height="14px" viewBox="0 0 14 14" enable-background="new 0 0 14 14" xml:space="preserve">
	 
	 <style>
	 path,rect,polygon { fill:#191919 !important}
	 </style>
	 
<path fill="#191919" d="M0.094,8.773C0.1,8.978,0.118,9.205,0.146,9.447c0.063,0.526,0.205,1.137,0.396,1.717
	c0.717,2.152,1.935,2.629,2.299,2.728C3.076,13.964,3.342,14,3.633,14c0.754,0,1.508-0.24,1.592-0.268
	c0.009-0.002,0.02-0.005,0.029-0.009c0.434-0.155,0.903-0.528,0.991-1.104c0.058,0.004,0.117,0.006,0.183,0.006
	c0.125,0,0.254-0.006,0.383-0.02c0.099,0.006,0.363,0.07,0.555,0.137c0.018,0.006,0.034,0.012,0.053,0.016
	c0.584,0.168,1.234,0.203,1.68,0.203c0.484,0,2.133-0.053,2.941-0.713c1.512-1.232,2.051-3.877,1.949-5.361
	c-0.057-0.83-0.309-1.37-0.771-1.654c-0.285-0.173-0.612-0.262-0.973-0.262c-0.279,0-0.515,0.055-0.628,0.081l-0.021,0.005
	C11.475,5.08,11.1,5.142,10.891,5.154c-0.023,0.002-0.049,0-0.071,0c-0.095,0-0.187-0.014-0.271-0.027
	c0.482-0.473,0.762-0.91,0.801-0.973c0.533-0.858,0.441-1.591,0.271-2.041c-0.238-0.635-0.752-1.074-1.143-1.192
	c-0.079-0.025-0.2-0.118-0.369-0.118c-0.004,0-0.02,0-0.023,0c-0.744,0-1.076,0.656-1.236,0.939C8.772,1.88,8.699,2.066,8.594,2.177
	C8.225,2.559,8.029,2.68,7.912,2.75c-0.066,0.041-0.119,0.076-0.16,0.107C7.481,3.056,6.766,3.629,5.903,4.67
	c-0.301,0.361-0.61,0.939-0.789,1.299C5.002,6.021,4.828,6.101,4.559,6.216l-0.025,0.01c-0.154,0.067-0.285,0.158-0.4,0.263
	C3.961,6.363,3.754,6.291,3.528,6.291c-0.036,0-0.082,0.002-0.117,0.006C3.344,6.305,3.123,6.34,2.834,6.386
	C2.652,6.416,2.44,6.449,2.203,6.486C0.85,6.728,0.062,7.582,0.094,8.773z M5.539,11.263C5.381,10.97,4.523,9.308,4.547,7.787
	c0,0-0.017-0.514,0.367-0.678c0.127-0.055,0.854-0.367,0.934-0.447c0,0,0.441-0.961,0.798-1.393
	c0.827-0.999,1.485-1.523,1.677-1.665c0.121-0.089,0.398-0.226,0.967-0.817c0.446-0.467,0.479-1.021,0.813-1.021
	c0.004,0,0.007,0,0.009,0c0.026,0,0.038,0.06,0.103,0.081c0.178,0.053,0.98,0.747,0.319,1.813c0,0-0.332,0.522-0.905,1.011
	c0,0-0.781,0.687,0.08,1.198c0,0,0.491,0.252,1.113,0.252c0.041,0,0.083-0.002,0.125-0.004c0.275-0.016,0.706-0.088,0.838-0.115
	c0.076-0.016,0.256-0.067,0.462-0.067c0.152,0,0.32,0.029,0.47,0.12c0.685,0.419,0.293,4.162-1.283,5.447
	c-0.385,0.314-1.377,0.494-2.332,0.494c-0.518,0-1.023-0.053-1.415-0.164c0,0-0.546-0.19-0.882-0.19
	c-0.027,0-0.053,0.001-0.078,0.004c-0.108,0.013-0.209,0.017-0.297,0.017c-0.272,0-0.433-0.045-0.433-0.045S5.7,11.554,5.539,11.263
	z M1.06,8.697C1.035,7.85,1.694,7.461,2.37,7.342c0.542-0.084,1.041-0.275,1.146-0.275c0.006,0,0.009,0,0.013,0
	c0.081,0,0.087,0.209,0.013,0.242C3.447,7.363,3.315,7.621,3.277,7.957c-0.003,0.246-0.199,1.818,1.107,3.982
	c0.3,0.498,0.529,0.482,0.916,0.516c-0.017,0.232-0.373,0.361-0.373,0.361s-0.67,0.219-1.293,0.219c-0.188,0-0.371-0.021-0.53-0.071
	c0,0-1.017-0.216-1.646-2.104c-0.174-0.522-0.298-1.064-0.354-1.525C1.082,9.113,1.064,8.867,1.06,8.697z"/>
</svg>
