<?xml version="1.0" encoding="utf-8"?>
<!-- Generator: Adobe Illustrator 16.0.0, SVG Export Plug-In . SVG Version: 6.00 Build 0)  -->
<!DOCTYPE svg PUBLIC "-//W3C//DTD SVG 1.1//EN" "http://www.w3.org/Graphics/SVG/1.1/DTD/svg11.dtd">
<svg version="1.1" id="Capa_1" xmlns="http://www.w3.org/2000/svg" xmlns:xlink="http://www.w3.org/1999/xlink" x="0px" y="0px"
	 width="1000px" height="1000px" viewBox="0 0 1000 1000" enable-background="new 0 0 1000 1000" xml:space="preserve">
<g>
	<path fill="#CA3737" d="M730.773,411.818c0-103.682-86.046-200.272-216.773-200.272c-162.727,0-244.727,119.091-244.727,218.409
		c0,60.137,22.272,113.637,70.136,133.545c7.818,3.273,14.864,0.092,17.137-8.727c1.546-6.137,5.318-21.637,6.955-28.046
		c2.317-8.772,1.408-11.818-4.909-19.5C344.773,490.546,336,469.092,336,438.636c0-88.318,64.727-167.409,168.591-167.409
		c91.954,0,142.5,57.363,142.5,133.954c0,100.818-43.683,185.864-108.591,185.864c-35.864,0-62.637-30.228-54.046-67.318
		c10.272-44.272,30.228-92.091,30.228-124.046c0-28.591-15.046-52.5-46.182-52.5c-36.637,0-66.046,38.683-66.046,90.501
		c0,33,10.954,55.318,10.954,55.318s-37.5,162.136-44.045,190.499c-5.955,25.864-6.863,54.273-6.046,78.273
		c2.5,21.545,23.364,39.091,41.455,15.454c12.728-20.772,26.409-47,33.5-73.272c4.228-15.546,24.091-96.091,24.091-96.091
		c11.909,23.182,46.682,43.591,83.682,43.591C656.091,651.409,730.773,548.955,730.773,411.818z"/>
</g>
</svg>
