<?xml version="1.0" encoding="utf-8"?>
<!-- Generator: Adobe Illustrator 16.0.0, SVG Export Plug-In . SVG Version: 6.00 Build 0)  -->
<!DOCTYPE svg PUBLIC "-//W3C//DTD SVG 1.1//EN" "http://www.w3.org/Graphics/SVG/1.1/DTD/svg11.dtd">
<svg version="1.1" id="Capa_1" xmlns="http://www.w3.org/2000/svg" xmlns:xlink="http://www.w3.org/1999/xlink" x="0px" y="0px"
	 width="1000px" height="1000px" viewBox="0 0 1000 1000" enable-background="new 0 0 1000 1000" xml:space="preserve">
<g>
	<path fill="#E74C3C" d="M570.499,657.273c0-49.046-28.408-73.228-59.682-99.546l-25.591-19.909
		c-7.818-6.363-18.454-14.909-18.454-30.545c0-15.637,10.682-25.591,19.909-34.818c29.818-23.454,59.682-48.318,59.682-100.909
		c0-54.046-34.137-82.455-50.455-95.955l0,0h44.046L585.408,250H439c-38.364,0-86.683,5.682-127.228,39.091
		c-30.546,26.273-45.454,62.546-45.454,95.228c0,55.409,42.636,111.591,117.954,111.591c7.136,0,14.909-0.727,22.772-1.409
		c-3.545,8.546-7.091,15.637-7.091,27.728c0,22,11.363,35.546,21.318,48.318c-31.955,2.137-91.682,5.682-135.728,32.682
		c-41.954,24.864-54.727,61.137-54.727,86.728c0,52.591,49.772,101.637,152.817,101.637
		C505.818,791.592,570.499,724.046,570.499,657.273z M417.682,476.046c-61.137,0-88.864-78.909-88.864-126.5
		c0-18.5,3.546-37.637,15.637-52.591c11.363-14.228,31.272-23.5,49.772-23.5c59,0,89.546,79.636,89.546,130.772
		c0,12.818-1.409,35.546-17.772,51.909C454.636,467.5,435.454,476,417.682,476.046z M418.408,761.727
		c-76.045,0-125.09-36.228-125.09-86.682s45.499-67.5,61.136-73.182c29.863-9.955,68.228-11.409,74.637-11.409
		c7.091,0,10.636,0,16.317,0.728c54.046,38.363,77.455,57.545,77.455,93.817C522.864,729.046,486.636,761.727,418.408,761.727z"/>
	<polygon fill="#E74C3C" points="576.908,519.227 653.864,519.227 653.864,596.136 692.318,596.136 692.318,519.227 
		769.227,519.227 769.227,480.773 692.318,480.773 692.318,403.864 653.864,403.864 653.864,480.773 576.908,480.773 	"/>
</g>
</svg>
