<?xml version="1.0" encoding="utf-8"?>
<!-- Generator: Adobe Illustrator 16.0.0, SVG Export Plug-In . SVG Version: 6.00 Build 0)  -->
<!DOCTYPE svg PUBLIC "-//W3C//DTD SVG 1.1//EN" "http://www.w3.org/Graphics/SVG/1.1/DTD/svg11.dtd">
<svg version="1.1" id="Layer_1" xmlns="http://www.w3.org/2000/svg" xmlns:xlink="http://www.w3.org/1999/xlink" x="0px" y="0px"
	 width="20px" height="20px" viewBox="-3 -3 20 20" enable-background="new -3 -3 20 20" xml:space="preserve">
	 
	 <style>
	 path,rect,polygon { fill:#333333 !important}</style>
<g>
	<g>
		<polygon fill="#191919" points="14.428,10.011 4.063,10.011 -0.295,0.052 -3,0.052 -3,-1.193 0.52,-1.193 4.877,8.767 
			14.428,8.767 		"/>
	</g>
	<polygon fill="#191919" points="16.917,1.297 14.428,7.521 5.714,7.521 3.225,1.297 	"/>
	<path fill="#191919" d="M8.203,13.123c0,1.031-0.835,1.867-1.867,1.867c-1.031,0-1.867-0.836-1.867-1.867s0.836-1.867,1.867-1.867
		C7.368,11.256,8.203,12.092,8.203,13.123z"/>
	<path fill="#191919" d="M14.428,13.123c0,1.031-0.837,1.867-1.867,1.867c-1.031,0-1.867-0.836-1.867-1.867s0.836-1.867,1.867-1.867
		C13.591,11.256,14.428,12.092,14.428,13.123z"/>
</g>
</svg>
