<?xml version="1.0" encoding="utf-8"?>
<!-- Generator: Adobe Illustrator 16.0.0, SVG Export Plug-In . SVG Version: 6.00 Build 0)  -->
<!DOCTYPE svg PUBLIC "-//W3C//DTD SVG 1.1//EN" "http://www.w3.org/Graphics/SVG/1.1/DTD/svg11.dtd">
<svg version="1.1" id="Layer_1" xmlns="http://www.w3.org/2000/svg" xmlns:xlink="http://www.w3.org/1999/xlink" x="0px" y="0px"
	 width="100px" height="100px" viewBox="0 0 100 100" enable-background="new 0 0 100 100" xml:space="preserve">
	 <style>
	 path,rect,polygon { fill:#cccccc !important}
	 </style>
	 
<g>
	<g>
		<polygon fill="#CCCCCC" points="75.033,66.005 35.611,66.005 19.038,28.126 8.75,28.126 8.75,23.391 22.136,23.391 38.708,61.273 
			75.033,61.273 		"/>
	</g>
	<polygon fill="#CCCCCC" points="84.5,32.86 75.033,56.534 41.892,56.534 32.424,32.86 	"/>
	<path fill="#CCCCCC" d="M51.359,77.839c0,3.922-3.176,7.102-7.102,7.102c-3.922,0-7.102-3.18-7.102-7.102
		c0-3.923,3.18-7.102,7.102-7.102C48.183,70.737,51.359,73.916,51.359,77.839z"/>
	<path fill="#CCCCCC" d="M75.033,77.839c0,3.922-3.184,7.102-7.102,7.102c-3.922,0-7.102-3.18-7.102-7.102
		c0-3.923,3.18-7.102,7.102-7.102C71.85,70.737,75.033,73.916,75.033,77.839z"/>
</g>
</svg>
