<?xml version="1.0" encoding="utf-8"?>
<!-- Generator: Adobe Illustrator 16.0.0, SVG Export Plug-In . SVG Version: 6.00 Build 0)  -->
<!DOCTYPE svg PUBLIC "-//W3C//DTD SVG 1.1//EN" "http://www.w3.org/Graphics/SVG/1.1/DTD/svg11.dtd">
<svg version="1.1" id="Layer_1" xmlns="http://www.w3.org/2000/svg" xmlns:xlink="http://www.w3.org/1999/xlink" x="0px" y="0px"
	 width="32px" height="32px" viewBox="0 0 32 32" enable-background="new 0 0 32 32" xml:space="preserve">
	  <style>
	 path,rect,polygon { fill:#333333 !important}</style>
<g>
	<path fill="#191919" d="M16.051,8.061L4.603,17.5c0,0.013-0.004,0.032-0.01,0.059c-0.007,0.027-0.011,0.046-0.011,0.061v9.557
		c0,0.346,0.126,0.644,0.378,0.896c0.252,0.253,0.55,0.38,0.896,0.38h7.646v-7.646h5.098v7.646h7.646
		c0.346,0,0.644-0.127,0.896-0.379c0.252-0.253,0.379-0.551,0.379-0.896v-9.557c0-0.054-0.007-0.094-0.021-0.119L16.051,8.061z"/>
	<path fill="#191919" d="M31.881,15.349l-4.36-3.623V3.601c0-0.186-0.06-0.338-0.18-0.458c-0.119-0.121-0.271-0.18-0.458-0.18H23.06
		c-0.185,0-0.338,0.06-0.457,0.18c-0.12,0.119-0.18,0.271-0.18,0.458v3.883l-4.858-4.063c-0.424-0.345-0.929-0.518-1.513-0.518
		c-0.583,0-1.088,0.173-1.513,0.518L0.222,15.349c-0.133,0.106-0.206,0.249-0.219,0.429c-0.013,0.179,0.034,0.335,0.14,0.468
		l1.234,1.474c0.107,0.119,0.246,0.192,0.418,0.219c0.16,0.014,0.318-0.033,0.478-0.14L16.051,6.309L29.83,17.798
		c0.106,0.093,0.246,0.14,0.419,0.14h0.059c0.173-0.026,0.312-0.1,0.419-0.219l1.235-1.474c0.105-0.133,0.151-0.289,0.138-0.469
		C32.087,15.598,32.014,15.456,31.881,15.349z"/>
</g>
</svg>
