<?xml version="1.0" encoding="utf-8"?>
<!-- Generator: Adobe Illustrator 16.0.0, SVG Export Plug-In . SVG Version: 6.00 Build 0)  -->
<!DOCTYPE svg PUBLIC "-//W3C//DTD SVG 1.1//EN" "http://www.w3.org/Graphics/SVG/1.1/DTD/svg11.dtd">
<svg version="1.1" id="Layer_1" xmlns="http://www.w3.org/2000/svg" xmlns:xlink="http://www.w3.org/1999/xlink" x="0px" y="0px"
	 width="32px" height="32px" viewBox="0 0 32 32" enable-background="new 0 0 32 32" xml:space="preserve">
	 
	 <style>
	 path,rect,polygon { fill:#191919 !important}
	 </style>
<g>
	<g>
		<path fill="#191919" d="M65.497,16.551L50.083,1.136L34.669,16.551c-0.781,0.781-0.781,2.047,0,2.828s2.047,0.781,2.828,0
			l0.586-0.586v7.172v2.025h2h20h2v-2.025v-7.172l0.586,0.586c0.391,0.391,0.902,0.586,1.414,0.586s1.023-0.195,1.414-0.586
			C66.278,18.598,66.278,17.332,65.497,16.551z M60.083,25.99h-12v-8h-4v8h-4v-9.197l10-10.001l10,10.001V25.99z"/>
		<rect x="52.083" y="17.99" fill="#191919" width="4" height="4"/>
	</g>
	<polygon fill="#191919" points="44.083,4.308 44.083,1.99 40.083,1.99 40.083,8.308 	"/>
</g>
<g>
	<path fill="#191919" d="M89.471,9.541c-1.201,2.748-3.824,5.045-6.367,5.045c-3.105,0-5.359-2.27-6.562-5.018
		c-6.991,3.621-6.11,12.787-6.11,12.787c0,1.254,0.988,1.436,2.149,1.436h10.521h10.508c1.162,0,2.154-0.182,2.154-1.436
		C95.764,22.355,96.459,13.162,89.471,9.541z"/>
	<path fill="#191919" d="M83.104,13.098c3.5,0,6.285-5.012,6.285-9.152s-2.84-7.497-6.341-7.497c-3.503,0-6.339,3.356-6.339,7.498
		C76.709,8.087,79.601,13.098,83.104,13.098z"/>
</g>
<path fill="#191919" d="M57.93,47.243c0,0.945-0.766,1.711-1.711,1.711s-1.711-0.766-1.711-1.711v-8.555
	c0-0.944,0.766-1.711,1.711-1.711s1.711,0.767,1.711,1.711V47.243z M56.219,35.293c-0.945,0-1.711-0.765-1.711-1.711
	c0-0.943,0.766-1.711,1.711-1.711s1.711,0.768,1.711,1.711C57.93,34.528,57.164,35.293,56.219,35.293z"/>
<path fill="#191919" d="M56.219,26.726c-7.559,0-13.688,6.129-13.688,13.688s6.129,13.688,13.688,13.688s13.688-6.129,13.688-13.688
	S63.777,26.726,56.219,26.726z M56.219,52.226c-6.523,0-11.813-5.289-11.813-11.813c0-6.524,5.289-11.813,11.813-11.813
	s11.813,5.288,11.813,11.813C68.031,46.937,62.742,52.226,56.219,52.226z"/>
<path fill="#969696" d="M8.64,28.859c-0.466,0.471-0.466,1.232,0,1.701c0.465,0.471,1.22,0.471,1.686,0l13.616-13.752
	c0.467-0.471,0.467-1.233,0-1.703L10.326,1.353c-0.466-0.47-1.22-0.47-1.686,0c-0.466,0.471-0.466,1.232,0,1.702l12.418,12.902
	L8.64,28.859z"/>
</svg>
