<?xml version="1.0" encoding="utf-8"?>
<!-- Generator: Adobe Illustrator 16.0.0, SVG Export Plug-In . SVG Version: 6.00 Build 0)  -->
<!DOCTYPE svg PUBLIC "-//W3C//DTD SVG 1.1//EN" "http://www.w3.org/Graphics/SVG/1.1/DTD/svg11.dtd">
<svg version="1.1" id="Capa_1" xmlns="http://www.w3.org/2000/svg" xmlns:xlink="http://www.w3.org/1999/xlink" x="0px" y="0px"
	 width="1000px" height="1000px" viewBox="0 0 1000 1000" enable-background="new 0 0 1000 1000" xml:space="preserve">
<path fill="#F6821F" d="M752.858,564.075c-0.164-37.537-0.282-64.673-18.754-88.541c-20.912-27.012-53.187-31.597-79.342-32.373
	c4.405-18.876,5.68-39.804,3.645-62.428c-0.556-75.354-56.615-129.515-134.425-131.661l-1.121-0.033l-119.013,0.096l-1.279-0.006
	c-46.285,0-82.874,13.82-108.749,41.071c-16.015,16.855-37.287,46.304-39.538,93.915l-0.096,191.986
	c-0.231,3.63,0.131,7.289,0.082,11.05c0,54.622,8.742,93.938,36.041,122.995c27.277,29.058,67.611,43.788,119.863,43.788
	c1.132,0,2.273,0,3.417-0.021h181.808h0.432c46.619-0.391,86.012-15.777,113.914-44.497c27.855-28.665,42.857-69.504,43.371-118.102
	C753.105,591.314,752.888,571.754,752.858,564.075z M413.499,351.439l101.684-0.124c23.964,0.38,43.088,21.848,42.707,45.813
	c-0.38,23.734-19.734,41.043-43.377,41.043c-0.235,0-102.388,0.041-102.388,0.041c-23.966-0.38-43.081-20.115-42.696-44.075
	C369.808,370.173,389.501,351.203,413.499,351.439z M604.627,637.076H401.263c-23.96,0-43.397-19.427-43.397-43.397
	c0-23.965,19.437-43.396,43.397-43.396h203.376c23.964,0,43.396,19.432,43.396,43.396
	C648.034,617.649,628.598,637.076,604.627,637.076z"/>
</svg>
