<?xml version="1.0" encoding="utf-8"?>
<!-- Generator: Adobe Illustrator 16.0.0, SVG Export Plug-In . SVG Version: 6.00 Build 0)  -->
<!DOCTYPE svg PUBLIC "-//W3C//DTD SVG 1.1//EN" "http://www.w3.org/Graphics/SVG/1.1/DTD/svg11.dtd">
<svg version="1.1" id="Layer_1" xmlns="http://www.w3.org/2000/svg" xmlns:xlink="http://www.w3.org/1999/xlink" x="0px" y="0px"
	 width="32px" height="32px" viewBox="0 0 32 32" enable-background="new 0 0 32 32" xml:space="preserve">
	 <style>
	 path,rect,polygon { fill:#000000 !important}
	 </style>
<g>
	<path fill="#191919" d="M16.683,20.457c-0.528,0.529-0.528,1.39,0,1.92c0.256,0.257,0.597,0.398,0.959,0.398
		c0.363,0,0.703-0.141,0.96-0.398l4.937-4.934c0.122-0.125,0.22-0.271,0.292-0.445c0.067-0.165,0.102-0.338,0.102-0.512
		c0-0.175-0.034-0.348-0.105-0.525c-0.07-0.165-0.168-0.312-0.292-0.435l-4.933-4.932c-0.256-0.256-0.597-0.397-0.96-0.397
		s-0.704,0.141-0.959,0.397c-0.529,0.529-0.529,1.39,0,1.919l2.615,2.615H1.357C0.608,15.128,0,15.738,0,16.485
		s0.608,1.356,1.357,1.356h17.941L16.683,20.457z"/>
	<path fill="#191919" d="M26.854,4.334H11.595c-2.495,0-4.523,2.029-4.523,4.522l0.003,4.797h0.271
		c0.248,0.332,0.644,0.548,1.083,0.548c0.453,0,0.851-0.216,1.096-0.554l0.261-0.004V8.856c0-0.996,0.811-1.808,1.808-1.808h15.258
		c0.997,0,1.809,0.812,1.809,1.808v15.259c0,0.997-0.812,1.807-1.809,1.807H11.595c-0.997,0-1.808-0.81-1.808-1.807l-0.002-4.801
		H9.513c-0.249-0.33-0.644-0.546-1.083-0.546c-0.443,0-0.841,0.219-1.088,0.555l-0.27,0.003v4.789c0,2.493,2.029,4.521,4.523,4.521
		h15.258c2.494,0,4.522-2.028,4.522-4.521V8.856C31.376,6.363,29.348,4.334,26.854,4.334z"/>
</g>
</svg>
