<?xml version="1.0" encoding="utf-8"?>
<!-- Generator: Adobe Illustrator 16.0.0, SVG Export Plug-In . SVG Version: 6.00 Build 0)  -->
<!DOCTYPE svg PUBLIC "-//W3C//DTD SVG 1.1//EN" "http://www.w3.org/Graphics/SVG/1.1/DTD/svg11.dtd">
<svg version="1.1" id="Layer_1" xmlns="http://www.w3.org/2000/svg" xmlns:xlink="http://www.w3.org/1999/xlink" x="0px" y="0px"
	 width="100px" height="100px" viewBox="0 0 100 100" enable-background="new 0 0 100 100" xml:space="preserve">
	 <style>
	 path,rect,polygon { fill:#cccccc !important}
	 </style>
<g>
	<path fill="#CCCCCC" d="M45.711,30.655c1.247-4.938,2.898-7.738,4.039-7.738s2.792,2.8,4.039,7.738h4.012
		c-1.57-6.756-4.265-11.607-8.051-11.607c-3.782,0-6.48,4.852-8.048,11.607H45.711z"/>
	<path fill="#CCCCCC" d="M69.096,34.524h-10.55c0.412,2.63,0.685,5.426,0.801,8.279c1.18,0.661,2.011,1.877,2.011,3.328
		c0,2.139-1.731,3.869-3.869,3.869s-3.869-1.73-3.869-3.869c0-1.371,0.756-2.52,1.832-3.204c-0.128-3.125-0.431-5.939-0.846-8.403
		h-9.71c-0.412,2.463-0.714,5.275-0.843,8.399c1.073,0.688,1.829,1.836,1.829,3.208c0,2.139-1.73,3.869-3.869,3.869
		c-2.139,0-3.87-1.73-3.87-3.869c0-1.451,0.832-2.667,2.01-3.328c0.117-2.853,0.389-5.649,0.801-8.279H30.405l-7.738,46.429h54.167
		L69.096,34.524z"/>
</g>
</svg>
