<?xml version="1.0" encoding="utf-8"?>
<!-- Generator: Adobe Illustrator 16.0.0, SVG Export Plug-In . SVG Version: 6.00 Build 0)  -->
<!DOCTYPE svg PUBLIC "-//W3C//DTD SVG 1.1//EN" "http://www.w3.org/Graphics/SVG/1.1/DTD/svg11.dtd">
<svg version="1.1" id="Layer_1" xmlns="http://www.w3.org/2000/svg" xmlns:xlink="http://www.w3.org/1999/xlink" x="0px" y="0px"
	 width="32px" height="32px" viewBox="0 0 32 32" enable-background="new 0 0 32 32" xml:space="preserve">
	  <style>
	 path,rect,polygon { fill:#191919 !important}
	 </style>
<g>
	<path fill="#191919" d="M16.032,7.443L4.644,16.832c0,0.014-0.003,0.033-0.01,0.06s-0.01,0.046-0.01,0.06v9.508
		c0,0.343,0.125,0.641,0.376,0.891c0.251,0.251,0.548,0.377,0.892,0.377h7.606v-7.607h5.071v7.607h7.605
		c0.345,0,0.642-0.126,0.893-0.377c0.25-0.25,0.376-0.548,0.376-0.891v-9.508c0-0.053-0.006-0.094-0.019-0.119L16.032,7.443z"/>
	<path fill="#191919" d="M31.78,14.693l-4.338-3.605V3.006c0-0.185-0.06-0.337-0.179-0.456c-0.118-0.119-0.271-0.178-0.455-0.178
		h-3.804c-0.185,0-0.337,0.06-0.455,0.178c-0.119,0.119-0.179,0.271-0.179,0.456v3.863l-4.833-4.042
		c-0.422-0.343-0.924-0.515-1.504-0.515c-0.583,0-1.083,0.171-1.506,0.515L0.286,14.693c-0.132,0.105-0.205,0.248-0.218,0.425
		c-0.014,0.178,0.033,0.334,0.138,0.466l1.229,1.467c0.105,0.117,0.244,0.19,0.416,0.217c0.158,0.014,0.317-0.033,0.475-0.139
		L16.032,5.7l13.707,11.429c0.107,0.092,0.245,0.139,0.416,0.139h0.061c0.171-0.026,0.309-0.1,0.416-0.217l1.228-1.467
		c0.105-0.132,0.152-0.288,0.139-0.466C31.985,14.94,31.912,14.798,31.78,14.693z"/>
</g>
</svg>
