<?xml version="1.0" encoding="utf-8"?>
<!-- Generator: Adobe Illustrator 16.0.0, SVG Export Plug-In . SVG Version: 6.00 Build 0)  -->
<!DOCTYPE svg PUBLIC "-//W3C//DTD SVG 1.1//EN" "http://www.w3.org/Graphics/SVG/1.1/DTD/svg11.dtd">
<svg version="1.1" id="Layer_1" xmlns="http://www.w3.org/2000/svg" xmlns:xlink="http://www.w3.org/1999/xlink" x="0px" y="0px"
	 width="14px" height="14px" viewBox="0 0 14 14" enable-background="new 0 0 14 14" xml:space="preserve">
	 
	 <style>
	 path,rect,polygon { fill:#191919 !important}
	 </style>
<path fill="#191919" d="M10.171,8.766c0.617-0.888,0.979-1.963,0.979-3.125c0-3.037-2.463-5.5-5.5-5.5c-3.037,0-5.5,2.463-5.5,5.5
	c0,3.038,2.463,5.5,5.5,5.5c1.152,0,2.223-0.355,3.104-0.963l3.684,3.684l1.414-1.414L10.171,8.766z M5.649,9.141
	c-1.933,0-3.5-1.568-3.5-3.5c0-1.933,1.567-3.5,3.5-3.5s3.5,1.567,3.5,3.5C9.148,7.572,7.582,9.141,5.649,9.141z"/>
</svg>
